<svg width="152" height="39" viewBox="0 0 152 39" fill="none" xmlns="http://www.w3.org/2000/svg">
<g clip-path="url(#clip0_1355_13917)">
<path d="M18.7828 0C22.6244 0 25.3201 1.04715 26.9163 3.09505C28.4662 5.04354 28.91 7.78734 28.2609 11.2867L27.3137 16.7279C26.0685 23.8723 21.5712 27.4644 13.8351 27.4644C13.4377 27.4644 12.4376 27.365 10.8414 27.2126L9.34448 35.7555C9.09279 37.0014 8.34435 37.6509 7.09916 37.6509H1.60837C0.310189 37.6509 -0.186565 37.0014 0.0585001 35.7555L5.54928 4.59287C5.80097 3.24086 6.64877 2.24673 8.09266 1.69665C11.1394 0.550084 14.7359 0 18.7828 0ZM19.1272 10.5378C19.4253 8.8875 18.6305 8.0922 16.7296 8.0922C15.7294 8.0922 14.9346 8.19161 14.3849 8.34405C14.2855 8.39707 14.1862 8.49648 14.1332 8.64229L12.2853 19.18C12.9344 19.3325 13.6828 19.4319 14.4312 19.4319C16.4779 19.4319 17.6767 18.5305 18.0277 16.6815L19.1272 10.5378Z" fill="white"/>
<path d="M31.2101 10.5378C32.4553 3.49933 37.0983 0 45.1855 0C49.3317 0 52.5242 0.550084 54.7695 1.69664C55.518 2.0943 56.0147 2.49857 56.1671 2.84321C56.3194 3.19446 56.3194 3.74455 56.1671 4.59287L52.7759 23.9253C52.5772 25.1249 51.8287 25.9202 50.4776 26.2715C47.1857 27.0734 43.5892 27.4711 39.6483 27.4711C35.9061 27.4711 33.2568 26.3709 31.6142 24.2236C30.0643 22.2287 29.6205 19.4783 30.263 15.9326L31.2101 10.5378ZM44.0396 8.0922C41.993 8.0922 40.7942 8.99354 40.4431 10.8426L39.3437 16.9333C39.092 18.5836 39.8934 19.4319 41.7413 19.4319C42.7878 19.4319 43.6886 19.3325 44.3377 19.18L46.1856 8.64228C46.2386 8.44346 46.1856 8.34405 45.9869 8.29103C45.4835 8.13859 44.8344 8.0922 44.0396 8.0922Z" fill="white"/>
<path d="M82.5213 0.749023C83.7665 0.749023 84.3162 1.39852 84.0711 2.64449L79.8255 26.9675C78.4744 34.4566 73.785 38.2078 65.8502 38.2078C60.7568 38.2078 57.465 36.5111 55.9151 33.1642C55.3654 31.9182 55.8158 30.9175 57.3127 30.268L61.5583 28.3195C62.7571 27.7694 63.6579 28.0213 64.201 28.969C64.8501 30.0692 65.7972 30.6192 67.0954 30.6192C68.9433 30.6192 70.0428 29.6715 70.3872 27.723L70.6853 25.7745C69.7845 25.927 68.6386 25.9734 67.2941 25.9734C63.5519 25.9734 60.9025 24.9262 59.3593 22.7789C57.8624 20.784 57.412 18.0336 58.0611 14.4879L60.1607 2.65112C60.4124 1.40515 61.1609 0.755651 62.406 0.755651H67.8968C69.142 0.755651 69.6918 1.40515 69.4467 2.65112L67.3007 14.8391C66.9497 16.6882 67.7975 17.5896 69.8441 17.5896C70.7449 17.5896 71.5397 17.5365 72.1888 17.3907L74.7852 2.65775C75.0368 1.41178 75.7853 0.762278 77.0305 0.762278H82.5213V0.749023Z" fill="white"/>
<path d="M114.717 1.3255C117.856 1.3255 120.062 2.06116 121.28 3.51259C122.539 5.01703 122.883 7.45596 122.3 10.7565L119.856 24.5616C119.717 25.2707 119.452 25.3967 118.909 25.3967H113.418C113.286 25.3967 113.193 25.3834 113.14 25.3768C113.14 25.3171 113.147 25.2243 113.173 25.0852C113.173 25.0719 113.18 25.0653 113.18 25.052L115.571 11.28C115.823 9.98767 115.637 8.94715 115.015 8.18499C114.405 7.4427 113.465 7.06494 112.226 7.06494C111.544 7.06494 110.736 7.15772 109.822 7.34329C109.206 7.46921 108.756 8.01267 108.756 8.64229C108.756 9.25202 108.643 10.0009 108.524 10.7101L106.086 24.5682C105.941 25.2774 105.676 25.4033 105.139 25.4033H99.6485C99.516 25.4033 99.4233 25.39 99.3703 25.3834C99.3703 25.3171 99.3769 25.2177 99.41 25.0653L101.854 11.28C101.854 11.2668 101.861 11.2535 101.861 11.2336C102.046 9.92803 101.814 8.8875 101.172 8.14522C100.556 7.43608 99.6418 7.07156 98.4563 7.07156C97.827 7.07156 97.1515 7.13121 96.4891 7.23725C96.3567 7.25713 96.2308 7.2969 96.1116 7.35655C95.6877 7.56863 95.3565 7.95302 95.1976 8.41695C95.1777 8.48322 95.1578 8.54287 95.1512 8.60915L92.3628 24.5616C92.2369 25.2045 92.0117 25.3967 91.3626 25.3967H85.9248C85.7659 25.3967 85.6599 25.3834 85.5937 25.3701C85.5937 25.3039 85.6003 25.2045 85.6334 25.0587L89.1769 5.07005C89.3425 4.10906 89.8989 3.47945 90.9321 3.08842C94.0583 1.92198 97.4296 1.3255 100.94 1.3255C103.159 1.3255 104.901 1.7099 106.133 2.47206C106.345 2.60462 106.59 2.67089 106.828 2.67089C106.974 2.67089 107.113 2.64438 107.252 2.59799C109.789 1.74304 112.226 1.3255 114.717 1.3255ZM114.717 0C112.074 0 109.478 0.450671 106.828 1.34539C105.384 0.450671 103.437 0 100.94 0C97.2972 0 93.8 0.596477 90.4552 1.84908C89.0047 2.39916 88.1105 3.39992 87.8589 4.84472L84.3153 24.8267C84.0637 26.0727 84.6134 26.7222 85.9116 26.7222H91.3494C92.6476 26.7222 93.396 26.0727 93.6477 24.8267L96.4428 8.84111C96.4957 8.68868 96.5951 8.58927 96.6945 8.54287C97.2906 8.44346 97.8933 8.39044 98.443 8.39044C100.092 8.39044 100.788 9.29178 100.543 11.0348L98.0986 24.8201C97.8469 26.066 98.3967 26.7155 99.6485 26.7155H105.139C106.384 26.7155 107.133 26.066 107.385 24.8201L109.829 10.9354C109.981 10.0341 110.08 9.28516 110.08 8.63566C110.829 8.48322 111.577 8.38381 112.226 8.38381C113.922 8.38381 114.624 9.28515 114.273 11.0282L111.875 24.8134C111.624 26.0594 112.173 26.7089 113.425 26.7089H118.916C120.161 26.7089 120.91 26.0594 121.161 24.8134L123.605 10.9752C124.897 3.64514 121.956 0 114.717 0Z" fill="white"/>
<path d="M141.071 1.3255C144.429 1.3255 146.999 2.01477 148.715 3.37341C150.311 4.73205 150.92 6.59438 150.589 9.03994C150.298 10.9818 149.364 12.4266 147.741 13.4671C145.992 14.5872 143.648 15.1571 140.767 15.1571C139.104 15.1571 137.249 15.0577 135.256 14.8655C135.209 14.8589 135.17 14.8589 135.123 14.8589C134.494 14.8589 133.944 15.3029 133.825 15.9392L133.626 16.9863C133.626 16.9996 133.62 17.0128 133.62 17.0195C133.381 18.4908 133.62 19.6572 134.335 20.4989C135.044 21.334 136.15 21.7581 137.627 21.7581C139.74 21.7581 141.522 21.0159 142.926 19.5512C142.939 19.5379 142.946 19.5313 142.959 19.518C143.138 19.3192 143.403 19.0806 143.668 19.0806C143.807 19.0806 143.979 19.1403 144.171 19.2596C144.204 19.2795 144.237 19.2993 144.27 19.3126L147.496 20.9496C147.748 21.0888 147.814 21.1882 147.814 21.1882C147.814 21.2014 147.82 21.4135 147.483 21.904C145.409 24.714 141.694 26.1456 136.435 26.1456C132.633 26.1456 129.924 25.1713 128.394 23.256C127.03 21.5129 126.632 19.0607 127.208 15.9657L128.156 10.7697C128.685 7.79396 130.063 5.44782 132.242 3.8042C134.415 2.16057 137.389 1.3255 141.071 1.3255ZM134.991 9.37131L134.852 9.88826C134.752 10.2594 134.819 10.6571 135.031 10.9752C135.243 11.2933 135.587 11.5054 135.971 11.5518C137.442 11.7307 138.587 11.8102 139.574 11.8102C143.124 11.8102 143.952 9.95453 144.131 8.83448C144.303 7.65479 143.893 6.89262 143.522 6.4552C142.833 5.65327 141.707 5.26888 140.078 5.26888C137.389 5.26888 135.587 6.72693 134.991 9.37131ZM141.071 0C137.13 0 133.885 0.901343 131.441 2.75042C128.997 4.5995 127.447 7.19749 126.851 10.5444L125.904 15.7404C125.255 19.2397 125.751 22.0365 127.354 24.0844C129.149 26.3311 132.196 27.4777 136.441 27.4777C142.184 27.4777 146.224 25.8805 148.569 22.686C149.47 21.387 149.317 20.4393 148.118 19.7898L144.873 18.1395C144.462 17.8877 144.058 17.7618 143.674 17.7618C143.071 17.7618 142.495 18.06 141.979 18.6366C140.833 19.8362 139.382 20.4326 137.634 20.4326C135.488 20.4326 134.587 19.3855 134.938 17.2382L135.137 16.191C137.183 16.3899 139.078 16.4893 140.78 16.4893C143.972 16.4893 146.522 15.8398 148.469 14.5938C150.417 13.3478 151.563 11.5451 151.914 9.25202C152.311 6.30277 151.516 4.00965 149.569 2.3594C147.608 0.80193 144.813 0 141.071 0ZM139.574 10.4914C138.528 10.4914 137.375 10.392 136.13 10.2395L136.282 9.68943C136.733 7.64153 137.978 6.59438 140.078 6.59438C142.124 6.59438 143.025 7.2969 142.82 8.64229C142.621 9.88826 141.522 10.4914 139.574 10.4914Z" fill="white"/>
</g>
<defs>
<clipPath id="clip0_1355_13917">
<rect width="152" height="38.2076" fill="white"/>
</clipPath>
</defs>
</svg>
